<svg width="32" height="32" viewBox="0 0 32 32" fill="none" xmlns="http://www.w3.org/2000/svg">
<circle cx="16" cy="16" r="16" fill="url(#paint0_linear_801_10)"/>
<path d="M20.5 7.75V20.5L16 18.25L11.5 20.5V7.75M20.5 7.75H22C22.5967 7.75 23.169 7.98705 23.591 8.40901C24.0129 8.83097 24.25 9.40326 24.25 10V22C24.25 22.5967 24.0129 23.169 23.591 23.591C23.169 24.0129 22.5967 24.25 22 24.25H10C9.40326 24.25 8.83097 24.0129 8.40901 23.591C7.98705 23.169 7.75 22.5967 7.75 22V10C7.75 9.40326 7.98705 8.83097 8.40901 8.40901C8.83097 7.98705 9.40326 7.75 10 7.75H11.5M20.5 7.75H11.5" stroke="#3B5BDB" stroke-width="1.5" stroke-linecap="round" stroke-linejoin="round"/>
<defs>
<linearGradient id="paint0_linear_801_10" x1="32" y1="-1.90735e-06" x2="1.90735e-06" y2="32" gradientUnits="userSpaceOnUse">
<stop stop-color="white"/>
<stop offset="1" stop-color="#DBE4FF"/>
</linearGradient>
</defs>
</svg>
